<?xml version="1.0" standalone="no"?>
<!DOCTYPE svg PUBLIC "-//W3C//DTD SVG 20010904//EN"
 "http://www.w3.org/TR/2001/REC-SVG-20010904/DTD/svg10.dtd">
<svg version="1.0" xmlns="http://www.w3.org/2000/svg"
 width="345.000000pt" height="345.000000pt" viewBox="0 0 345.000000 345.000000"
 preserveAspectRatio="xMidYMid meet">

<g transform="translate(0.000000,345.000000) scale(0.100000,-0.100000)"
fill="#000000" stroke="none">
<path d="M834 3179 c-67 -26 -129 -80 -162 -143 l-27 -51 0 -1285 0 -1285 30
-54 c55 -100 146 -151 268 -151 116 1 209 58 265 164 l27 51 5 490 5 490 450
0 450 0 5 -490 5 -490 27 -50 c59 -111 147 -164 269 -165 124 0 213 55 275
170 17 30 19 62 22 246 4 236 1 247 -68 259 -64 10 -64 8 -70 -224 -5 -193 -7
-212 -26 -238 -70 -95 -201 -98 -261 -6 -17 25 -18 68 -23 560 -5 494 -6 534
-23 550 -16 17 -55 18 -555 21 -295 2 -552 0 -569 -3 -64 -11 -63 -7 -63 -577
l0 -513 -24 -36 c-66 -97 -209 -91 -263 11 l-23 44 2 1245 3 1246 26 45 c42
71 63 85 124 85 45 0 58 -5 83 -28 16 -15 39 -47 50 -71 22 -43 22 -50 22
-565 l0 -523 29 -29 29 -29 185 0 c101 0 187 3 190 7 4 3 2 12 -5 20 -14 17
-13 80 2 98 5 6 7 15 3 18 -3 4 -68 7 -144 7 l-138 0 -3 488 c-3 487 -3 487
-27 536 -67 142 -234 210 -377 155z"/>
<path d="M2345 3179 c-73 -30 -130 -81 -162 -147 l-28 -57 -5 -488 -5 -489
-170 1 c-197 2 -231 -5 -244 -52 -6 -22 -5 -38 4 -52 26 -42 48 -45 288 -43
l229 3 24 28 24 28 0 522 0 522 24 50 c35 74 87 120 136 120 47 0 80 -28 118
-100 l27 -50 3 -890 3 -889 21 -24 c18 -19 31 -22 68 -20 l45 3 0 915 0 915
-27 51 c-71 134 -237 198 -373 143z"/>
</g>
</svg>
