<?xml version="1.0" standalone="no"?>
<!DOCTYPE svg PUBLIC "-//W3C//DTD SVG 20010904//EN"
 "http://www.w3.org/TR/2001/REC-SVG-20010904/DTD/svg10.dtd">
<svg version="1.0" xmlns="http://www.w3.org/2000/svg"
 width="479.000000pt" height="503.000000pt" viewBox="0 0 479.000000 503.000000"
 preserveAspectRatio="xMidYMid meet">

<g transform="translate(0.000000,503.000000) scale(0.100000,-0.100000)"
fill="#000000" stroke="none">
<path d="M1514 4750 c-68 -27 -129 -81 -162 -144 l-27 -51 0 -1285 0 -1285 30
-54 c55 -99 146 -151 264 -151 120 0 224 66 272 173 24 52 24 54 29 537 l5
485 450 0 450 0 5 -485 c5 -480 5 -486 28 -535 52 -114 147 -175 273 -175 124
0 213 55 275 170 17 30 19 62 22 246 4 236 1 247 -68 259 -64 10 -64 8 -70
-224 -5 -193 -7 -212 -26 -238 -70 -95 -201 -98 -261 -6 -17 25 -18 68 -23
560 -5 494 -6 534 -23 550 -17 17 -54 18 -582 18 -528 0 -565 -1 -582 -18 -17
-16 -18 -56 -23 -550 -5 -530 -5 -532 -27 -563 -66 -92 -208 -83 -260 16 l-23
44 2 1245 3 1246 28 48 c38 64 79 89 135 84 51 -5 88 -37 120 -101 22 -43 22
-50 22 -565 l0 -523 29 -29 29 -29 186 0 c167 0 216 6 186 25 -13 8 -13 92 0
100 13 8 3 26 -13 24 -7 -1 -69 -1 -139 0 l-127 1 -3 488 c-3 485 -4 487 -27
535 -67 141 -238 212 -377 157z"/>
<path d="M3022 4748 c-65 -26 -135 -92 -165 -155 -21 -47 -22 -58 -25 -535
l-3 -488 -167 0 c-201 0 -238 -8 -251 -53 -6 -22 -5 -38 4 -52 26 -42 48 -45
288 -43 l229 3 24 28 24 28 0 522 0 522 24 50 c35 74 87 120 136 120 47 0 80
-28 118 -100 l27 -50 3 -890 3 -889 21 -24 c18 -19 31 -22 68 -20 l45 3 0 915
0 915 -27 51 c-71 136 -235 197 -376 142z"/>
<path d="M445 1325 c-20 -14 -68 -41 -106 -61 l-69 -34 17 -33 c16 -28 18 -69
21 -354 l3 -323 95 0 94 0 0 415 c0 228 -4 415 -9 415 -4 0 -25 -11 -46 -25z"/>
<path d="M1825 1080 c-16 -11 -61 -36 -100 -56 -38 -20 -71 -38 -73 -39 -2 -2
5 -18 15 -37 16 -30 18 -63 18 -365 l0 -333 98 0 97 0 0 425 c0 333 -3 425
-12 425 -7 0 -26 -9 -43 -20z"/>
<path d="M978 1058 c35 -58 197 -330 256 -431 31 -53 61 -97 65 -97 9 0 104
149 104 164 0 6 -50 98 -113 204 l-112 192 -110 0 -110 0 20 -32z"/>
<path d="M1405 1049 c35 -39 85 -130 85 -156 0 -29 22 -8 77 72 32 47 64 95
72 105 13 20 10 20 -129 20 l-142 0 37 -41z"/>
<path d="M2057 1063 c38 -56 55 -117 60 -223 6 -120 -10 -204 -54 -279 l-26
-44 48 6 c97 14 185 80 226 171 28 61 26 167 -5 231 -43 91 -145 164 -229 165
l-38 0 18 -27z"/>
<path d="M2860 804 l0 -284 96 0 96 0 -4 198 c-3 194 -3 198 -30 244 -31 51
-87 102 -130 117 l-28 10 0 -285z"/>
<path d="M3379 1083 c-15 -2 -51 -18 -80 -36 -157 -94 -181 -326 -47 -454 41
-39 112 -72 156 -73 l33 0 -25 43 c-29 51 -56 166 -56 239 0 74 25 183 55 240
27 52 28 51 -36 41z"/>
<path d="M3590 1083 c0 -5 7 -18 15 -29 32 -46 47 -111 52 -225 6 -124 -8
-198 -48 -267 -10 -18 -19 -36 -19 -39 0 -14 95 9 135 33 114 67 165 213 119
347 -19 55 -83 131 -133 156 -41 21 -121 37 -121 24z"/>
<path d="M4255 1064 c72 -38 139 -89 180 -137 l35 -41 0 102 0 102 -132 0
-133 0 50 -26z"/>
<path d="M700 800 l0 -280 100 0 100 0 0 138 c0 171 -13 253 -49 312 -26 44
-109 110 -137 110 -12 0 -14 -48 -14 -280z"/>
<path d="M2646 1072 c-3 -5 -41 -20 -86 -33 l-80 -24 0 -247 0 -248 100 0 100
0 0 280 c0 237 -2 280 -14 280 -8 0 -17 -4 -20 -8z"/>
<path d="M3959 1008 c-8 -87 49 -196 130 -252 36 -25 325 -149 379 -163 19 -4
22 -1 22 25 0 82 -74 200 -154 247 -36 21 -356 155 -371 155 -3 0 -5 -6 -6
-12z"/>
<path d="M3960 626 l0 -106 127 0 c127 0 128 0 95 18 -64 34 -156 108 -188
151 l-34 44 0 -107z"/>
<path d="M1015 498 c-74 -40 -53 -148 31 -164 41 -7 108 9 141 36 l22 17 -29
21 c-16 12 -36 35 -46 51 -27 46 -77 62 -119 39z"/>
</g>
</svg>
